<?xml version="1.0" standalone="no"?>
<!DOCTYPE svg PUBLIC "-//W3C//DTD SVG 20010904//EN"
 "http://www.w3.org/TR/2001/REC-SVG-20010904/DTD/svg10.dtd">
<svg version="1.0" xmlns="http://www.w3.org/2000/svg"
 width="908.000000pt" height="908.000000pt" viewBox="0 0 908.000000 908.000000"
 preserveAspectRatio="xMidYMid meet">
<metadata>
Created by potrace 1.11, written by Peter Selinger 2001-2013
</metadata>
<g transform="translate(0.000000,908.000000) scale(0.100000,-0.100000)"
fill="#000000" stroke="none">
<path d="M6711 7903 c-46 -10 -105 -86 -155 -200 -26 -59 -63 -139 -82 -178
-19 -38 -34 -75 -34 -82 0 -6 -3 -13 -7 -15 -5 -1 -23 -32 -42 -68 -40 -76
-89 -150 -100 -150 -4 0 -28 19 -54 43 -33 30 -64 76 -108 161 -65 125 -95
167 -143 197 -29 17 -30 17 -60 -4 -17 -12 -36 -26 -43 -33 -12 -12 -48 -86
-57 -119 -9 -34 -23 -132 -31 -220 -3 -33 -8 -85 -10 -115 -7 -71 -34 -179
-52 -207 -8 -12 -24 -23 -36 -25 -32 -5 -125 17 -177 43 -52 25 -163 99 -168
111 -2 4 -9 8 -16 8 -7 0 -21 9 -31 20 -10 11 -24 20 -32 20 -7 0 -13 4 -13 8
0 10 -91 60 -145 79 -124 44 -242 -10 -297 -135 -27 -61 -32 -85 -32 -178 0
-156 64 -259 244 -385 141 -100 416 -237 724 -361 83 -33 167 -69 186 -79 19
-11 38 -19 42 -19 17 0 131 -76 177 -118 53 -49 111 -147 111 -188 0 -24 -2
-23 -102 28 -57 29 -106 57 -109 61 -3 5 -9 8 -13 7 -3 0 -57 24 -119 53 -61
30 -146 69 -187 87 -41 18 -93 40 -115 50 -43 19 -273 98 -302 104 -10 1 -25
6 -33 9 -19 8 -254 56 -300 62 -201 25 -531 26 -670 1 -14 -2 -47 -7 -73 -11
-27 -4 -56 -8 -65 -10 -10 -3 -37 -9 -62 -16 -25 -6 -55 -13 -66 -15 -12 -2
-51 -12 -85 -23 -75 -22 -146 -41 -174 -46 -11 -2 -20 -4 -20 -6 0 -1 -9 -3
-20 -5 -11 -1 -31 -5 -45 -9 -61 -15 -123 -20 -230 -20 -102 0 -147 4 -200 18
-8 2 -28 7 -45 12 -47 12 -214 68 -400 136 -93 33 -181 63 -195 65 -14 3 -32
7 -40 10 -8 3 -28 8 -45 11 -16 3 -50 9 -75 13 -48 9 -299 10 -314 2 -5 -3
-28 -6 -52 -8 -25 -1 -68 -7 -97 -13 -28 -6 -63 -12 -77 -15 -14 -2 -45 -9
-70 -16 -25 -7 -55 -14 -66 -16 -27 -5 -194 -52 -214 -61 -18 -8 -17 -7 -57
-17 -18 -4 -50 -16 -72 -27 -22 -10 -44 -19 -50 -19 -5 0 -22 -5 -38 -12 -15
-6 -30 -12 -33 -13 -74 -25 -290 -136 -372 -192 -151 -102 -295 -240 -364
-348 -10 -16 -27 -39 -36 -49 -10 -10 -15 -23 -12 -28 3 -4 1 -8 -4 -8 -6 0
-15 -12 -21 -27 -6 -16 -21 -46 -34 -67 -26 -45 -24 -44 -192 -31 -160 12
-209 9 -265 -20 -19 -10 -36 -19 -38 -20 -1 -1 2 -24 8 -50 47 -211 215 -334
475 -350 88 -6 91 -7 122 -41 40 -45 82 -133 117 -244 31 -96 33 -102 72 -185
29 -63 56 -104 114 -172 43 -51 107 -144 134 -198 44 -85 42 -173 -8 -345 -20
-69 -38 -132 -40 -140 -3 -8 -5 -16 -6 -17 -2 -2 -3 -6 -4 -10 -2 -5 -9 -28
-16 -53 -7 -25 -14 -48 -16 -52 -1 -5 -3 -10 -4 -13 -1 -3 -4 -9 -5 -15 -1 -5
-4 -12 -5 -15 -1 -3 -4 -9 -5 -15 -1 -5 -3 -11 -5 -12 -1 -2 -3 -10 -5 -18 -1
-8 -17 -62 -35 -120 -18 -58 -32 -106 -32 -107 1 -2 -5 -21 -13 -44 -9 -23
-17 -51 -20 -63 -2 -12 -15 -61 -29 -109 -14 -49 -27 -100 -30 -115 -3 -15
-10 -49 -16 -77 -22 -104 -21 -99 -35 -225 -11 -89 -12 -254 -3 -315 4 -27 10
-68 13 -90 9 -63 35 -145 62 -200 27 -52 141 -226 154 -235 19 -13 77 -139 66
-142 -7 -2 -73 -3 -147 -1 -420 10 -481 8 -555 -15 -78 -24 -122 -58 -149
-115 -17 -36 -29 -148 -19 -174 4 -10 832 -13 4094 -13 l4089 0 -4 67 c-5 78
-10 96 -44 141 -45 59 -152 106 -266 117 -106 11 -750 -5 -871 -21 -62 -8
-356 -7 -390 1 -16 4 -43 9 -60 12 -69 13 -249 243 -359 458 -49 96 -72 173
-80 270 -3 33 -8 80 -10 105 -3 25 -7 86 -11 136 -3 49 -7 101 -10 115 -4 27
-12 80 -20 137 -3 20 -10 60 -15 87 -17 95 -29 267 -20 295 1 3 3 21 6 40 7
62 21 132 34 175 5 17 21 71 36 120 15 50 40 130 55 180 74 229 82 396 29 561
-7 22 -16 44 -20 49 -4 6 -10 21 -13 35 -7 28 -3 32 108 115 51 38 178 110
194 110 4 0 11 3 16 6 16 10 67 21 112 24 38 3 43 1 42 -18 0 -25 5 -54 24
-147 13 -58 15 -151 5 -205 -6 -32 -31 -109 -39 -120 -13 -19 -28 -100 -30
-165 -5 -127 114 -355 212 -405 39 -21 103 -19 147 4 49 25 152 127 152 150 0
17 -35 107 -75 196 -35 76 -48 202 -31 280 12 53 109 209 165 266 9 9 32 36
51 60 39 49 232 245 296 299 41 36 100 76 144 98 56 29 132 -8 255 -122 103
-96 158 -128 225 -130 32 -2 86 1 121 6 93 11 176 17 329 22 226 8 292 32 336
123 24 47 29 72 31 147 3 102 -18 218 -49 281 -11 22 -60 78 -107 125 -101 98
-89 89 -268 222 -76 57 -139 106 -141 111 -2 4 -9 7 -16 7 -7 0 -22 9 -33 20
-52 47 -321 168 -438 196 -145 35 -230 52 -236 48 -4 -2 -10 0 -13 5 -3 5 -15
7 -25 4 -11 -3 -26 -1 -35 4 -12 7 -4 17 40 48 54 39 71 50 189 115 33 18 72
41 87 51 14 11 29 19 33 19 12 0 90 65 142 118 75 77 120 183 138 322 11 85 1
250 -19 315 -2 6 -7 25 -11 42 -11 48 -26 56 -96 49 -120 -11 -216 -80 -319
-231 -48 -71 -65 -92 -86 -108 -22 -16 -24 -16 -61 5 -46 26 -183 166 -183
187 0 3 -32 36 -71 73 -94 89 -124 90 -217 4 -41 -38 -60 -80 -66 -151 -4 -43
66 -225 87 -225 6 0 8 -3 4 -6 -3 -4 5 -26 18 -50 14 -24 22 -44 19 -44 -4 0
-2 -6 3 -12 17 -22 7 -103 -17 -139 -20 -31 -100 -99 -115 -99 -9 0 -95 -60
-119 -82 -18 -16 -22 -16 -40 -3 -12 8 -63 40 -113 71 -125 76 -177 124 -199
181 -26 66 -23 180 5 268 29 89 72 185 83 185 5 0 7 4 4 9 -3 5 3 20 14 34 11
14 20 28 20 32 0 3 32 60 71 126 59 101 152 282 154 299 0 3 3 10 6 15 16 26
28 92 32 175 8 136 -125 355 -256 421 -40 21 -122 32 -166 22z m-1798 -4235
c16 -44 38 -135 42 -172 1 -12 3 -21 5 -21 8 0 -2 -331 -14 -430 -2 -16 -7
-59 -11 -95 -4 -36 -9 -78 -11 -95 -4 -30 -9 -83 -18 -205 -21 -252 4 -434 80
-583 l34 -68 -16 -62 c-9 -34 -19 -66 -24 -72 -19 -25 -47 -123 -44 -155 8
-69 48 -100 183 -141 40 -12 83 -30 95 -40 l21 -18 -30 -2 c-16 -1 -52 -3 -80
-5 -170 -10 -431 -15 -785 -15 -617 0 -1340 2 -1341 4 0 1 -2 22 -5 47 -19
168 -61 336 -123 495 -39 98 -111 250 -318 670 -88 179 -142 316 -169 430 -4
17 -8 80 -9 140 -3 94 1 122 22 190 14 44 29 82 34 83 5 2 9 9 9 16 0 7 13 33
29 58 l30 47 93 -31 c51 -16 100 -33 108 -36 20 -7 48 -14 105 -27 11 -2 54
-11 95 -20 41 -9 84 -18 95 -20 11 -1 44 -6 74 -10 30 -3 62 -8 72 -10 136
-26 753 -26 890 0 9 2 40 6 70 10 30 3 113 17 184 30 72 14 139 26 150 28 11
1 25 5 30 8 6 4 28 10 50 13 43 8 234 65 300 90 67 25 80 21 98 -26z m720
-243 c2 -11 6 -27 9 -35 8 -20 27 -115 33 -165 6 -45 14 -96 21 -140 2 -16 7
-46 9 -65 6 -40 14 -93 20 -130 2 -14 6 -43 10 -65 3 -22 7 -47 10 -55 2 -8 6
-26 9 -40 3 -14 9 -40 15 -58 5 -18 10 -34 11 -37 0 -3 2 -10 4 -17 2 -7 6
-22 9 -33 6 -24 74 -221 87 -250 5 -11 11 -31 13 -45 3 -14 13 -54 22 -90 19
-76 26 -234 14 -311 -5 -30 -7 -64 -4 -75 7 -29 85 -78 168 -105 37 -12 67
-27 68 -33 3 -42 13 -77 33 -118 l23 -47 -26 -5 c-78 -16 -110 -18 -261 -17
-348 4 -332 2 -350 36 -8 16 -19 35 -25 41 -5 7 -23 31 -39 53 -17 23 -33 41
-38 41 -4 0 -8 7 -8 15 0 8 -3 15 -8 15 -16 0 -92 128 -112 188 -16 50 -21 90
-21 191 -1 147 -11 206 -46 268 l-24 43 36 133 c20 72 50 175 66 227 16 52 30
100 30 105 1 6 5 18 11 28 5 10 11 26 13 35 4 19 71 217 84 247 12 28 69 179
93 248 20 56 33 64 41 22z m-3872 -122 c7 -16 15 -37 20 -48 4 -11 22 -65 39
-120 104 -334 158 -474 196 -506 8 -6 14 -16 14 -21 0 -11 58 -68 120 -119 23
-19 47 -38 54 -44 6 -5 29 -23 51 -39 41 -30 129 -115 136 -132 2 -5 25 -40
50 -79 117 -177 133 -216 145 -350 3 -38 8 -90 10 -115 7 -80 22 -148 43 -195
l20 -45 -558 0 c-543 0 -558 1 -576 20 -10 11 -19 28 -20 37 -7 70 -49 125
-165 216 -36 29 -70 56 -77 62 -6 5 -26 21 -44 35 -61 46 -141 134 -166 184
-13 26 -30 78 -37 115 -18 94 -12 282 10 354 3 11 7 29 9 40 7 49 49 166 81
224 52 94 124 163 333 321 187 141 251 191 275 219 17 19 25 15 37 -14z"/>
</g>
</svg>
