<?xml version="1.0" encoding="UTF-8"?>
<!-- Generator: Adobe Illustrator 12.0.1, SVG Export Plug-In . SVG Version: 6.00 Build 51448)  -->
<!DOCTYPE svg PUBLIC "-//W3C//DTD SVG 1.1//EN" "http://www.w3.org/Graphics/SVG/1.1/DTD/svg11.dtd" [
	<!ENTITY ns_svg "http://www.w3.org/2000/svg">
	<!ENTITY ns_xlink "http://www.w3.org/1999/xlink">
]>
<svg version="1.1" id="Layer_1" xmlns="http://www.w3.org/2000/svg" xmlns:xlink="http://www.w3.org/1999/xlink" width="454.125" height="337.067" viewBox="0 0 454.125 337.067" overflow="visible" enable-background="new 0 0 454.125 337.067" xml:space="preserve">
<g>
	<path fill-rule="evenodd" clip-rule="evenodd" d="M415.948,337.067c-136.316,0-272.634,0-408.949,0   c-3.849-23.847,26.062-13.934,43.995-15.998c-3.824-9.023-11.526-14.627-13.998-24.997c-5.78-24.245,4.159-48.756,8.999-65.992   c2.209-7.867,8.602-24.756,7.999-30.996c-0.814-8.432-10.854-16.414-13.998-22.997c-4.162-8.714-4.388-16.949-10.999-23.997   C12.537,152.218,2.241,146.183,0,132.093c5.627-5.25,14.716-1.287,23.997-2c8.446-18.952,24.601-31.2,45.994-38.995   c15.131-5.513,34.028-10.874,49.994-9.999c18.438,1.01,35.367,13.442,52.994,13.998c13.065,0.412,26.347-5.899,39.995-7.999   c44.798-6.893,75.213,11.096,100.987,23.997c-2.401-15.186-20.89-18.504-36.995-25.997c-14.563-6.775-33.488-15.043-36.996-26.997   c-2.455-8.367,0.401-20.085,8.999-21.998c12.541-2.789,23.073,16.518,36.995,14.998c6.787-9.544,0.326-32.336,11.999-36.995   c8.796,3.869,8.192,17.138,16.998,20.997c3.664-4.697,6.571-11.004,9.998-17.998c3.254-6.638,5.004-16.001,11.999-16.998   c11.244-1.601,19.744,14.868,19.997,20.998c0.774,18.711-25.314,39.383-19.997,57.993c1.979,6.925,12.892,9.968,16.998,13.999   c5.204-5.828,13.185-5.938,13.998-13.999c0.588-5.832-7.944-13.296-6.999-20.997c0.457-3.721,2.624-7.555,8.999-9.999   c8.693,3.971,10.952,14.378,19.997,17.998c7.444-6.887,9.654-19.009,24.997-17.998c4.347,10.973,3.357,23.746-1,31.996   c-5.797,10.977-21.403,14.601-28.996,21.997c15.326,1.484,30.382,6.948,39.995,13.999c8.332,6.112,23.752,16.725,26.996,23.997   c2.458,5.509,3.327,17.09,0,21.997c-3.914,5.772-14.941,4.558-24.997,4.999c-5.295,0.233-11.756,1.95-15.998,1   c-6.461-1.446-13.105-13.052-19.997-12.998c-4.389,0.034-15.966,11.54-19.997,15.998c-6.406,7.082-13.515,14.923-14.998,21.997   c-1.696,8.084,3.772,15.645,5.999,22.997c-3.863,3.525-7.041,8.761-12.999,7.999c-6.007-0.768-12.478-11.669-12.998-20.997   c-0.325-5.837,3.566-11.201,4-16.998c0.502-6.718-2.159-11.069-2-15.998c-8.378-0.267-18.139,6.442-23.997,11.998   c11.148,22.415-4.588,37.137-5.999,60.993c-0.421,7.105,1.979,16.104,2.999,24.996c1.061,9.241,0.707,18.298,3,24.997   c2.185,6.383,13.773,26.01,19.997,27.997c9.111,2.908,24.526,0,37.995,0C391.848,321.069,418.31,315.693,415.948,337.067z    M124.984,212.083c-13.834,19.367-2.7,36.858,6,54.993c8.329,17.361,17.25,31.529,18.998,53.993   c36.996-0.667,76.656,1.332,111.986-1c-5.07-4.898-13.08-2.249-14.999-8.999c-1.354-4.762,3.947-9.493,4-15.998   c-15.256-22.595,4.659-60.86-5.999-84.989c-0.667,0-1.334,0-2,0C209.379,222.932,159.686,225.671,124.984,212.083z    M262.967,277.074c5.849,6.148,2.273,14.997,4,22.997c1.891,8.765,10.545,14.307,12.998,20.998c10.004-0.662,22.657,1.326,30.996-1   c-1.673-2.327-2.611-5.388-2.999-8.999c-4.812-1.187-9.175-2.824-11.999-5.999c3.846-19.551-4.448-29.641-7.999-44.995   c-2.873-12.422-3.512-28.967-6.999-37.995C274.07,239.517,267.753,257.529,262.967,277.074z M55.993,256.077   c-4.156,7.52-7.516,21.993-5,32.996c2.684,11.733,15.749,15.698,22.997,24.996c1.972,1.695,0.375,6.958,4,7   c18.331,0,36.662,0,54.993,0c-4.72-8.499-2.354-17.787-5-24.997c-1.348-3.675-7.021-12.493-8.999-14.998   c-5.624-7.123-14.39-10.095-18.998-17.998c-5.797-9.943-6.727-19.921-11.998-32.996c-0.057-0.609-0.15-1.184-1-1   C79.875,236.312,60.912,247.177,55.993,256.077z"/>
</g>
</svg>